<?xml version="1.0" encoding="UTF-8" standalone="no"?>
<!DOCTYPE svg PUBLIC "-//W3C//DTD SVG 1.1//EN"
 "http://www.w3.org/Graphics/SVG/1.1/DTD/svg11.dtd">
<!-- Generated by graphviz version 2.47.0 (20210316.0004)
 -->
<!-- Title: dependencies Pages: 1 -->
<svg width="1462pt" height="287pt"
 viewBox="0.00 0.00 1462.00 287.00" xmlns="http://www.w3.org/2000/svg" xmlns:xlink="http://www.w3.org/1999/xlink">
<g id="graph0" class="graph" transform="scale(1 1) rotate(0) translate(4 283)">
<title>dependencies</title>
<polygon fill="white" stroke="transparent" points="-4,4 -4,-283 1458,-283 1458,4 -4,4"/>
<text text-anchor="start" x="706.01" y="-42.4" font-family="Times-12" font-weight="bold" font-size="14.00">Legend</text>
<polygon fill="#ffffb3" stroke="transparent" points="493,-10 493,-30 513,-30 513,-10 493,-10"/>
<text text-anchor="start" x="516.63" y="-15.4" font-family="Times-12" font-size="14.00"> &#160;Declarations</text>
<polygon fill="#8dd3c7" stroke="transparent" points="606,-10 606,-30 626,-30 626,-10 606,-10"/>
<text text-anchor="start" x="629.73" y="-15.4" font-family="Times-12" font-size="14.00"> &#160;Module</text>
<polygon fill="#80b1d3" stroke="transparent" points="692,-10 692,-30 712,-30 712,-10 692,-10"/>
<text text-anchor="start" x="715.78" y="-15.4" font-family="Times-12" font-size="14.00"> &#160;Bootstrap</text>
<polygon fill="#fdb462" stroke="transparent" points="789,-10 789,-30 809,-30 809,-10 789,-10"/>
<text text-anchor="start" x="812.67" y="-15.4" font-family="Times-12" font-size="14.00"> &#160;Providers</text>
<polygon fill="#fb8072" stroke="transparent" points="885,-10 885,-30 905,-30 905,-10 885,-10"/>
<text text-anchor="start" x="908.73" y="-15.4" font-family="Times-12" font-size="14.00"> &#160;Exports</text>
<g id="clust1" class="cluster">
<title>cluster_AppModule</title>
<polygon fill="none" stroke="black" stroke-dasharray="1,5" points="512,-70 512,-271 876,-271 876,-70 512,-70"/>
</g>
<g id="clust3" class="cluster">
<title>cluster_AppModule_imports</title>
<polygon fill="none" stroke="black" points="520,-78 520,-206 868,-206 868,-78 520,-78"/>
</g>
<g id="clust7" class="cluster">
<title>cluster_AuthModule</title>
<polygon fill="none" stroke="black" stroke-dasharray="1,5" points="8,-70 8,-138 330,-138 330,-70 8,-70"/>
</g>
<g id="clust12" class="cluster">
<title>cluster_AuthModule_providers</title>
<polygon fill="none" stroke="black" points="16,-78 16,-130 322,-130 322,-78 16,-78"/>
</g>
<g id="clust19" class="cluster">
<title>cluster_ImagesModule</title>
<polygon fill="none" stroke="black" stroke-dasharray="1,5" points="884,-146 884,-214 1178,-214 1178,-146 884,-146"/>
</g>
<g id="clust22" class="cluster">
<title>cluster_ImagesModule_exports</title>
<polygon fill="none" stroke="black" points="1052,-154 1052,-206 1170,-206 1170,-154 1052,-154"/>
</g>
<g id="clust24" class="cluster">
<title>cluster_ImagesModule_providers</title>
<polygon fill="none" stroke="black" points="892,-154 892,-206 1044,-206 1044,-154 892,-154"/>
</g>
<g id="clust25" class="cluster">
<title>cluster_ProjectModule</title>
<polygon fill="none" stroke="black" stroke-dasharray="1,5" points="338,-70 338,-138 504,-138 504,-70 338,-70"/>
</g>
<g id="clust30" class="cluster">
<title>cluster_ProjectModule_providers</title>
<polygon fill="none" stroke="black" points="346,-78 346,-130 496,-130 496,-78 346,-78"/>
</g>
<g id="clust31" class="cluster">
<title>cluster_UserModule</title>
<polygon fill="none" stroke="black" stroke-dasharray="1,5" points="1186,-146 1186,-214 1446,-214 1446,-146 1186,-146"/>
</g>
<g id="clust34" class="cluster">
<title>cluster_UserModule_exports</title>
<polygon fill="none" stroke="black" points="1334,-154 1334,-206 1438,-206 1438,-154 1334,-154"/>
</g>
<g id="clust36" class="cluster">
<title>cluster_UserModule_providers</title>
<polygon fill="none" stroke="black" points="1194,-154 1194,-206 1326,-206 1326,-154 1194,-154"/>
</g>
<!-- AuthModule -->
<g id="node1" class="node">
<title>AuthModule</title>
<polygon fill="#8dd3c7" stroke="black" points="615.55,-198 612.55,-202 591.55,-202 588.55,-198 528.45,-198 528.45,-162 615.55,-162 615.55,-198"/>
<text text-anchor="middle" x="572" y="-175.8" font-family="Times,serif" font-size="14.00">AuthModule</text>
</g>
<!-- AppModule -->
<g id="node6" class="node">
<title>AppModule</title>
<polygon fill="#8dd3c7" stroke="black" points="793.66,-263 790.66,-267 769.66,-267 766.66,-263 710.34,-263 710.34,-227 793.66,-227 793.66,-263"/>
<text text-anchor="middle" x="752" y="-240.8" font-family="Times,serif" font-size="14.00">AppModule</text>
</g>
<!-- AuthModule&#45;&gt;AppModule -->
<g id="edge1" class="edge">
<title>AuthModule&#45;&gt;AppModule</title>
<path fill="none" stroke="black" d="M572,-198.28C572,-219.32 572,-251 572,-251 572,-251 700.25,-251 700.25,-251"/>
<polygon fill="black" stroke="black" points="700.25,-254.5 710.25,-251 700.25,-247.5 700.25,-254.5"/>
</g>
<!-- DatabaseModule -->
<g id="node2" class="node">
<title>DatabaseModule</title>
<polygon fill="#8dd3c7" stroke="black" points="742.35,-122 739.35,-126 718.35,-126 715.35,-122 631.65,-122 631.65,-86 742.35,-86 742.35,-122"/>
<text text-anchor="middle" x="687" y="-99.8" font-family="Times,serif" font-size="14.00">DatabaseModule</text>
</g>
<!-- DatabaseModule&#45;&gt;AppModule -->
<g id="edge2" class="edge">
<title>DatabaseModule&#45;&gt;AppModule</title>
<path fill="none" stroke="black" d="M737.51,-122.14C737.51,-122.14 737.51,-216.93 737.51,-216.93"/>
<polygon fill="black" stroke="black" points="734.01,-216.92 737.51,-226.93 741.01,-216.93 734.01,-216.92"/>
</g>
<!-- ImagesModule -->
<g id="node3" class="node">
<title>ImagesModule</title>
<polygon fill="#8dd3c7" stroke="black" points="859.97,-122 856.97,-126 835.97,-126 832.97,-122 760.03,-122 760.03,-86 859.97,-86 859.97,-122"/>
<text text-anchor="middle" x="810" y="-99.8" font-family="Times,serif" font-size="14.00">ImagesModule</text>
</g>
<!-- ProjectModule -->
<g id="node4" class="node">
<title>ProjectModule</title>
<polygon fill="#8dd3c7" stroke="black" points="732.7,-198 729.7,-202 708.7,-202 705.7,-198 633.3,-198 633.3,-162 732.7,-162 732.7,-198"/>
<text text-anchor="middle" x="683" y="-175.8" font-family="Times,serif" font-size="14.00">ProjectModule</text>
</g>
<!-- ImagesModule&#45;&gt;ProjectModule -->
<g id="edge11" class="edge">
<title>ImagesModule&#45;&gt;ProjectModule</title>
<path fill="none" stroke="black" d="M771.28,-122.2C771.28,-146.36 771.28,-186 771.28,-186 771.28,-186 742.82,-186 742.82,-186"/>
<polygon fill="black" stroke="black" points="742.82,-182.5 732.82,-186 742.82,-189.5 742.82,-182.5"/>
</g>
<!-- ImagesModule&#45;&gt;AppModule -->
<g id="edge3" class="edge">
<title>ImagesModule&#45;&gt;AppModule</title>
<path fill="none" stroke="black" d="M782.56,-122.14C782.56,-122.14 782.56,-216.93 782.56,-216.93"/>
<polygon fill="black" stroke="black" points="779.06,-216.92 782.56,-226.93 786.06,-216.93 779.06,-216.92"/>
</g>
<!-- ImagesService  -->
<g id="node9" class="node">
<title>ImagesService </title>
<polygon fill="#fb8072" stroke="black" points="1161.9,-198 1060.1,-198 1060.1,-162 1161.9,-162 1161.9,-198"/>
<text text-anchor="middle" x="1111" y="-175.8" font-family="Times,serif" font-size="14.00">ImagesService </text>
</g>
<!-- ImagesModule&#45;&gt;ImagesService  -->
<g id="edge9" class="edge">
<title>ImagesModule&#45;&gt;ImagesService </title>
<path fill="none" stroke="black" stroke-dasharray="5,2" d="M860.04,-104C945.63,-104 1111,-104 1111,-104 1111,-104 1111,-151.99 1111,-151.99"/>
<polygon fill="black" stroke="black" points="1107.5,-151.99 1111,-161.99 1114.5,-151.99 1107.5,-151.99"/>
</g>
<!-- ProjectModule&#45;&gt;AppModule -->
<g id="edge4" class="edge">
<title>ProjectModule&#45;&gt;AppModule</title>
<path fill="none" stroke="black" d="M721.39,-198.11C721.39,-198.11 721.39,-216.99 721.39,-216.99"/>
<polygon fill="black" stroke="black" points="717.89,-216.99 721.39,-226.99 724.89,-216.99 717.89,-216.99"/>
</g>
<!-- UserModule -->
<g id="node5" class="node">
<title>UserModule</title>
<polygon fill="#8dd3c7" stroke="black" points="613.98,-122 610.98,-126 589.98,-126 586.98,-122 528.02,-122 528.02,-86 613.98,-86 613.98,-122"/>
<text text-anchor="middle" x="571" y="-99.8" font-family="Times,serif" font-size="14.00">UserModule</text>
</g>
<!-- UserModule&#45;&gt;AuthModule -->
<g id="edge6" class="edge">
<title>UserModule&#45;&gt;AuthModule</title>
<path fill="none" stroke="black" d="M549.67,-122.01C549.67,-122.01 549.67,-151.85 549.67,-151.85"/>
<polygon fill="black" stroke="black" points="546.17,-151.85 549.67,-161.85 553.17,-151.85 546.17,-151.85"/>
</g>
<!-- UserModule&#45;&gt;ProjectModule -->
<g id="edge12" class="edge">
<title>UserModule&#45;&gt;ProjectModule</title>
<path fill="none" stroke="black" d="M614.03,-98C621.17,-98 626.31,-98 626.31,-98 626.31,-98 626.31,-180 626.31,-180 626.31,-180 627,-180 627,-180"/>
<polygon fill="black" stroke="black" points="623.26,-183.5 633.26,-180 623.26,-176.5 623.26,-183.5"/>
</g>
<!-- UserModule&#45;&gt;AppModule -->
<g id="edge5" class="edge">
<title>UserModule&#45;&gt;AppModule</title>
<path fill="none" stroke="black" d="M614.08,-110C618.29,-110 621.04,-110 621.04,-110 621.04,-110 621.04,-239 621.04,-239 621.04,-239 700.2,-239 700.2,-239"/>
<polygon fill="black" stroke="black" points="700.2,-242.5 710.2,-239 700.2,-235.5 700.2,-242.5"/>
</g>
<!-- UserService  -->
<g id="node12" class="node">
<title>UserService </title>
<polygon fill="#fb8072" stroke="black" points="1429.9,-198 1342.1,-198 1342.1,-162 1429.9,-162 1429.9,-198"/>
<text text-anchor="middle" x="1386" y="-175.8" font-family="Times,serif" font-size="14.00">UserService </text>
</g>
<!-- UserModule&#45;&gt;UserService  -->
<g id="edge14" class="edge">
<title>UserModule&#45;&gt;UserService </title>
<path fill="none" stroke="black" stroke-dasharray="5,2" d="M571.11,-122.21C571.11,-127.55 571.11,-132 571.11,-132 571.11,-132 1386,-132 1386,-132 1386,-132 1386,-151.85 1386,-151.85"/>
<polygon fill="black" stroke="black" points="1382.5,-151.85 1386,-161.85 1389.5,-151.85 1382.5,-151.85"/>
</g>
<!-- AuthService -->
<g id="node7" class="node">
<title>AuthService</title>
<ellipse fill="#fdb462" stroke="black" cx="255" cy="-104" rx="59.11" ry="18"/>
<text text-anchor="middle" x="255" y="-99.8" font-family="Times,serif" font-size="14.00">AuthService</text>
</g>
<!-- AuthService&#45;&gt;AuthModule -->
<g id="edge7" class="edge">
<title>AuthService&#45;&gt;AuthModule</title>
<path fill="none" stroke="black" d="M255,-122.03C255,-142.77 255,-174 255,-174 255,-174 518.26,-174 518.26,-174"/>
<polygon fill="black" stroke="black" points="518.26,-177.5 528.26,-174 518.26,-170.5 518.26,-177.5"/>
</g>
<!-- PasswordService -->
<g id="node8" class="node">
<title>PasswordService</title>
<ellipse fill="#fdb462" stroke="black" cx="101" cy="-104" rx="77" ry="18"/>
<text text-anchor="middle" x="101" y="-99.8" font-family="Times,serif" font-size="14.00">PasswordService</text>
</g>
<!-- PasswordService&#45;&gt;AuthModule -->
<g id="edge8" class="edge">
<title>PasswordService&#45;&gt;AuthModule</title>
<path fill="none" stroke="black" d="M101,-122.2C101,-146.36 101,-186 101,-186 101,-186 518.11,-186 518.11,-186"/>
<polygon fill="black" stroke="black" points="518.11,-189.5 528.11,-186 518.11,-182.5 518.11,-189.5"/>
</g>
<!-- ImagesService -->
<g id="node10" class="node">
<title>ImagesService</title>
<ellipse fill="#fdb462" stroke="black" cx="968" cy="-180" rx="67.75" ry="18"/>
<text text-anchor="middle" x="968" y="-175.8" font-family="Times,serif" font-size="14.00">ImagesService</text>
</g>
<!-- ImagesService&#45;&gt;ImagesModule -->
<g id="edge10" class="edge">
<title>ImagesService&#45;&gt;ImagesModule</title>
<path fill="none" stroke="black" d="M903.65,-174C866.44,-174 826.91,-174 826.91,-174 826.91,-174 826.91,-132.03 826.91,-132.03"/>
<polygon fill="black" stroke="black" points="830.41,-132.03 826.91,-122.03 823.41,-132.03 830.41,-132.03"/>
</g>
<!-- ProjectService -->
<g id="node11" class="node">
<title>ProjectService</title>
<ellipse fill="#fdb462" stroke="black" cx="421" cy="-104" rx="67.19" ry="18"/>
<text text-anchor="middle" x="421" y="-99.8" font-family="Times,serif" font-size="14.00">ProjectService</text>
</g>
<!-- ProjectService&#45;&gt;ProjectModule -->
<g id="edge13" class="edge">
<title>ProjectService&#45;&gt;ProjectModule</title>
<path fill="none" stroke="black" d="M421,-122.15C421,-135.74 421,-152 421,-152 421,-152 683,-152 683,-152 683,-152 683,-152.98 683,-152.98"/>
<polygon fill="black" stroke="black" points="679.5,-151.79 683,-161.79 686.5,-151.79 679.5,-151.79"/>
</g>
<!-- UserService -->
<g id="node13" class="node">
<title>UserService</title>
<ellipse fill="#fdb462" stroke="black" cx="1260" cy="-180" rx="58.44" ry="18"/>
<text text-anchor="middle" x="1260" y="-175.8" font-family="Times,serif" font-size="14.00">UserService</text>
</g>
<!-- UserService&#45;&gt;UserModule -->
<g id="edge15" class="edge">
<title>UserService&#45;&gt;UserModule</title>
<path fill="none" stroke="black" d="M1260,-161.89C1260,-152.1 1260,-142 1260,-142 1260,-142 592.55,-142 592.55,-142 592.55,-142 592.55,-132.11 592.55,-132.11"/>
<polygon fill="black" stroke="black" points="596.05,-132.11 592.55,-122.11 589.05,-132.11 596.05,-132.11"/>
</g>
</g>
</svg>
